<svg width="96" height="14" viewBox="16 46 96 14" fill="none" xmlns="http://www.w3.org/2000/svg">
<defs><clipPath id="clip1_10_306"><rect width="96" height="14" fill="white" transform="translate(16 46)"/></clipPath></defs>
<g clip-path="url(#clip1_10_306)">
<path d="M26.1905 53.6516C26.1905 56.3238 22.9521 57.8361 22.0815 58.1926C21.2361 57.8484 18.229 56.4467 17.9809 53.9754L17.9641 53.5082V49.6721C19.3309 49.4877 20.7146 49.0123 22.0815 48.2582C22.8301 48.6721 23.5745 49 24.3315 49.2418L24.4367 49.2664L25.2736 48.2008L25.1643 48.1639C24.2474 47.918 23.3306 47.5164 22.4137 46.9836L22.0815 46.791L21.745 46.9836C20.252 47.8648 18.7421 48.3648 17.2617 48.4795L16.6603 48.5287V53.6557C16.6603 57.6352 21.6525 59.4057 21.8628 59.4754L22.0815 59.5492L22.2918 59.4754C22.5021 59.4057 27.4943 57.6352 27.4943 53.6557V51.5656L26.1905 53.2336V53.6598V53.6516Z" fill="#92B0EC"/>
<path d="M27.6372 46.5492L22.0562 53.6598L20.3908 52.1639L18.9314 53.7049L22.3422 56.7664L29.3574 47.8115L27.6372 46.5492Z" fill="white"/>
<path d="M32.9533 58.5943L30.3836 47.3525H33.3024L34.7029 54.291L36.7132 47.3525H39.367L41.3774 54.291L42.7779 47.3525H45.5957L43.026 58.5943H40.0273L38.0002 51.4303L35.9562 58.5943H32.9575H32.9533Z" fill="#92B0EC"/>
<path d="M46.6303 58.5943V47.3525L49.301 46.791V50.6762C49.9613 50.1844 50.7393 49.9385 51.6393 49.9385C52.3207 49.9385 52.9221 50.082 53.4436 50.373C53.9651 50.6639 54.3731 51.0615 54.6717 51.5779C54.9703 52.0902 55.1175 52.6844 55.1175 53.3607V58.5984H52.4469V53.7172C52.4469 53.2459 52.3039 52.873 52.0179 52.5943C51.7319 52.3156 51.3492 52.1762 50.8655 52.1762C50.5248 52.1762 50.2262 52.2336 49.9655 52.3525C49.7089 52.4713 49.486 52.6352 49.2968 52.8484V58.5984H46.6261L46.6303 58.5943Z" fill="#92B0EC"/>
<path d="M60.8709 58.7541C59.9793 58.7541 59.1802 58.5574 58.4652 58.168C57.7503 57.7787 57.1867 57.25 56.7661 56.5861C56.3498 55.9221 56.1395 55.1762 56.1395 54.3525C56.1395 53.5287 56.3498 52.7828 56.7661 52.1107C57.1825 51.4426 57.7503 50.9098 58.4652 50.5205C59.1802 50.1312 59.9835 49.9344 60.8709 49.9344C61.7583 49.9344 62.5616 50.1312 63.2766 50.5205C63.9916 50.9098 64.5551 51.4426 64.9757 52.1107C65.3921 52.7787 65.6024 53.5287 65.6024 54.3525C65.6024 55.1762 65.3921 55.9221 64.9757 56.5861C64.5593 57.25 63.9916 57.7787 63.2766 58.168C62.5616 58.5574 61.7583 58.7541 60.8709 58.7541ZM60.8709 56.5041C61.2789 56.5041 61.6406 56.4057 61.9602 56.2131C62.2798 56.0205 62.5322 55.7623 62.7172 55.4344C62.9023 55.1066 62.999 54.7459 62.999 54.3484C62.999 53.9508 62.9065 53.5738 62.7172 53.25C62.5322 52.9221 62.2756 52.6639 61.9518 52.4713C61.6279 52.2787 61.2663 52.1803 60.8709 52.1803C60.4756 52.1803 60.1139 52.2787 59.79 52.4713C59.4662 52.6639 59.2096 52.9221 59.0246 53.25C58.8395 53.5779 58.7428 53.9426 58.7428 54.3484C58.7428 54.7541 58.8353 55.1066 59.0246 55.4344C59.2096 55.7623 59.4662 56.0205 59.79 56.2131C60.1139 56.4057 60.4756 56.5041 60.8709 56.5041Z" fill="#92B0EC"/>
<path d="M66.6917 58.5943V47.3525L69.3623 46.9508V58.5943H66.6917Z" fill="#92B0EC"/>
<path d="M75.1957 58.7541C74.3041 58.7541 73.5008 58.5574 72.7816 58.168C72.0624 57.7787 71.4947 57.25 71.0741 56.5861C70.6577 55.9221 70.4474 55.1762 70.4474 54.3525C70.4474 53.5287 70.6493 52.7828 71.0488 52.1189C71.4484 51.4549 71.9951 50.9262 72.6891 50.5369C73.383 50.1475 74.1485 49.9508 74.998 49.9508C75.8476 49.9508 76.613 50.1516 77.2733 50.5533C77.9336 50.9549 78.4509 51.5041 78.8294 52.2008C79.208 52.8975 79.3972 53.6926 79.3972 54.5943V55.2377H73.1854C73.3073 55.5041 73.4671 55.7418 73.6732 55.9426C73.8751 56.1475 74.119 56.3033 74.405 56.418C74.691 56.5287 74.998 56.5861 75.3261 56.5861C75.6878 56.5861 76.02 56.5287 76.3144 56.418C76.613 56.3074 76.8654 56.1475 77.0715 55.9426L78.8336 57.4672C78.2827 57.918 77.7191 58.2418 77.143 58.4467C76.5668 58.6516 75.9149 58.75 75.1915 58.75L75.1957 58.7541ZM73.1349 53.4221H76.777C76.6887 53.1434 76.5541 52.9057 76.3733 52.709C76.1925 52.5123 75.9822 52.3566 75.7382 52.2418C75.4985 52.1311 75.2336 52.0738 74.9476 52.0738C74.6616 52.0738 74.3798 52.1271 74.1401 52.2336C73.9003 52.3402 73.6943 52.4918 73.5218 52.6926C73.3494 52.8893 73.2232 53.1352 73.1349 53.4221Z" fill="#92B0EC"/>
<path d="M84.2591 58.7541C83.4347 58.7541 82.6693 58.6598 81.9669 58.4713C81.2646 58.2828 80.6547 58.0082 80.1374 57.6434L81.4076 55.8934C81.9585 56.2131 82.4548 56.4467 82.909 56.5902C83.359 56.7336 83.8048 56.8074 84.2422 56.8074C84.6796 56.8074 85.0287 56.7459 85.2895 56.623C85.546 56.5 85.6764 56.3361 85.6764 56.1312C85.6764 55.9713 85.6049 55.8402 85.4619 55.7377C85.3189 55.6353 85.0918 55.5656 84.7848 55.5205L83.0562 55.2623C82.1898 55.1353 81.5253 54.8525 81.0711 54.418C80.6169 53.9836 80.3856 53.418 80.3856 52.7254C80.3856 52.1475 80.537 51.6516 80.8398 51.2418C81.1426 50.8279 81.5716 50.5123 82.1352 50.2951C82.6945 50.0738 83.3674 49.9672 84.1455 49.9672C84.7806 49.9672 85.4156 50.0533 86.0423 50.2254C86.6689 50.3975 87.2493 50.6557 87.7877 50.9959L86.5175 52.668C86.0465 52.4016 85.5965 52.2049 85.1675 52.082C84.7385 51.959 84.3095 51.8975 83.8805 51.8975C83.5399 51.8975 83.2665 51.9549 83.0562 52.0656C82.8459 52.1762 82.745 52.3238 82.745 52.5082C82.745 52.6803 82.8207 52.8156 82.9763 52.918C83.1319 53.0205 83.3927 53.0984 83.767 53.1516L85.4955 53.4098C86.3535 53.5287 87.0138 53.8033 87.4806 54.2377C87.9475 54.6721 88.183 55.2213 88.183 55.8853C88.183 56.4426 88.0106 56.9344 87.6741 57.3648C87.3334 57.7951 86.8708 58.1312 86.282 58.3853C85.6932 58.6353 85.0203 58.7623 84.2633 58.7623L84.2591 58.7541Z" fill="#92B0EC"/>
<path d="M92.1531 58.7377C91.5391 58.7377 90.9924 58.627 90.5129 58.4016C90.0335 58.1762 89.6633 57.8648 89.3942 57.4713C89.125 57.0738 88.9904 56.6189 88.9904 56.1066C88.9904 55.291 89.3059 54.6639 89.9367 54.2213C90.5676 53.7787 91.4508 53.5533 92.5821 53.5533C93.2635 53.5533 93.9238 53.6352 94.5588 53.7951V53.377C94.5588 52.9508 94.42 52.6311 94.1382 52.4221C93.8565 52.2131 93.4443 52.1107 92.8934 52.1107C92.5527 52.1107 92.17 52.1639 91.7494 52.2705C91.3246 52.377 90.8283 52.5492 90.2564 52.7828L89.3017 50.873C90.0166 50.5615 90.7064 50.3279 91.3709 50.1762C92.0354 50.0205 92.7041 49.9426 93.3728 49.9426C94.5799 49.9426 95.5219 50.2254 96.1907 50.7869C96.8594 51.3484 97.1958 52.1393 97.1958 53.1557V58.5984H94.5588V58.0861C94.2055 58.3238 93.8354 58.4918 93.4443 58.5902C93.0532 58.6926 92.6242 58.7418 92.1489 58.7418L92.1531 58.7377ZM91.5265 56.0574C91.5265 56.3238 91.6485 56.5328 91.8882 56.6844C92.1279 56.8361 92.4644 56.9098 92.8934 56.9098C93.213 56.9098 93.5116 56.877 93.7934 56.8115C94.0752 56.7459 94.3275 56.6475 94.5588 56.5082V55.418C94.3065 55.3525 94.0499 55.3074 93.785 55.2746C93.52 55.2418 93.2508 55.2254 92.9775 55.2254C92.5148 55.2254 92.1573 55.2992 91.905 55.4426C91.6527 55.5861 91.5265 55.7951 91.5265 56.0615V56.0574Z" fill="#92B0EC"/>
<path d="M98.6132 58.5943V47.3525L101.284 46.9508V58.5943H98.6132Z" fill="#92B0EC"/>
<path d="M107.117 58.7541C106.226 58.7541 105.422 58.5574 104.703 58.168C103.984 57.7787 103.416 57.25 102.996 56.5861C102.579 55.9221 102.369 55.1762 102.369 54.3525C102.369 53.5287 102.571 52.7828 102.97 52.1189C103.37 51.4549 103.917 50.9262 104.611 50.5369C105.304 50.1475 106.07 49.9508 106.919 49.9508C107.769 49.9508 108.534 50.1516 109.195 50.5533C109.855 50.9549 110.372 51.5041 110.751 52.2008C111.129 52.8975 111.319 53.6926 111.319 54.5943V55.2377H105.107C105.229 55.5041 105.389 55.7418 105.595 55.9426C105.797 56.1475 106.04 56.3033 106.326 56.418C106.612 56.5287 106.919 56.5861 107.248 56.5861C107.609 56.5861 107.941 56.5287 108.236 56.418C108.534 56.3074 108.787 56.1475 108.993 55.9426L110.755 57.4672C110.204 57.918 109.641 58.2418 109.064 58.4467C108.488 58.6516 107.836 58.75 107.113 58.75L107.117 58.7541ZM105.056 53.4221H108.698C108.61 53.1434 108.476 52.9057 108.295 52.709C108.114 52.5123 107.904 52.3566 107.66 52.2418C107.42 52.1311 107.155 52.0738 106.869 52.0738C106.583 52.0738 106.301 52.1271 106.061 52.2336C105.822 52.3402 105.616 52.4918 105.443 52.6926C105.271 52.8893 105.145 53.1352 105.056 53.4221Z" fill="#92B0EC"/>
</g>
</svg>