<svg width="20" height="20" viewBox="0 0 20 20" fill="none" xmlns="http://www.w3.org/2000/svg">
<path d="M0.649095 17.2728C0.649095 18.4205 1.57943 19.3508 2.72707 19.3508" stroke="#46525D" stroke-width="1.25" stroke-linecap="round" stroke-linejoin="round"/>
<path d="M0.649185 2.72706V17.2729" stroke="#46525D" stroke-width="1.25" stroke-linecap="round" stroke-linejoin="round"/>
<path d="M6.88303 19.3508H2.72709" stroke="#46525D" stroke-width="1.25" stroke-linecap="round" stroke-linejoin="round"/>
<path d="M19.3509 2.72707C19.3509 1.57943 18.4205 0.649095 17.2729 0.649095" stroke="#46525D" stroke-width="1.25" stroke-linecap="round" stroke-linejoin="round"/>
<path d="M19.3509 5.84401V2.72706" stroke="#46525D" stroke-width="1.25" stroke-linecap="round" stroke-linejoin="round"/>
<path d="M2.72709 0.64909H17.2729" stroke="#46525D" stroke-width="1.25" stroke-linecap="round" stroke-linejoin="round"/>
<path d="M0.649095 2.72707C0.649095 1.57943 1.57943 0.649095 2.72707 0.649095" stroke="#46525D" stroke-width="1.25" stroke-linecap="round" stroke-linejoin="round"/>
<path fill-rule="evenodd" clip-rule="evenodd" d="M6.36356 15.2593V15.2593C5.50284 15.2593 4.80508 14.5616 4.80508 13.7008V13.7008C4.80508 12.8401 5.50284 12.1424 6.36356 12.1424V12.1424C7.22428 12.1424 7.92204 12.8401 7.92204 13.7008V13.7008C7.92204 14.5616 7.22428 15.2593 6.36356 15.2593V15.2593Z" stroke="#46525D" stroke-width="1.25" stroke-linecap="round" stroke-linejoin="round"/>
<path d="M4.80508 4.86945H13.117" stroke="#46525D" stroke-width="1.25" stroke-linecap="round" stroke-linejoin="round"/>
<path d="M4.80508 8.5059H10" stroke="#46525D" stroke-width="1.25" stroke-linecap="round" stroke-linejoin="round"/>
<path fill-rule="evenodd" clip-rule="evenodd" d="M11.5585 18.8313V18.4095C11.5619 17.2094 12.5339 16.2373 13.7341 16.2339H17.1752C18.3754 16.2373 19.3474 17.2094 19.3509 18.4095V18.8313C19.3509 19.1183 19.1183 19.3508 18.8314 19.3508H12.078C11.791 19.3508 11.5585 19.1183 11.5585 18.8313Z" stroke="#46525D" stroke-width="1.25" stroke-linecap="round" stroke-linejoin="round"/>
<path fill-rule="evenodd" clip-rule="evenodd" d="M13.3767 11.5501C13.3813 10.4036 14.3137 9.47743 15.4602 9.48048C16.6068 9.48354 17.5342 10.4147 17.5326 11.5612C17.5311 12.7078 16.6012 13.6364 15.4547 13.6364C14.9021 13.6364 14.3723 13.4164 13.9824 13.0249C13.5925 12.6334 13.3745 12.1027 13.3767 11.5501V11.5501Z" stroke="#46525D" stroke-width="1.25" stroke-linecap="round" stroke-linejoin="round"/>
</svg>
