<svg width="24" height="24" viewBox="0 0 24 24" fill="none" xmlns="http://www.w3.org/2000/svg">
<path d="M2.99622 19.0029C2.99622 20.1079 3.89202 21.0037 4.99705 21.0037" stroke="#46525D" stroke-width="1.25" stroke-linecap="round" stroke-linejoin="round"/>
<path d="M2.9963 4.99707V19.0029" stroke="#46525D" stroke-width="1.25" stroke-linecap="round" stroke-linejoin="round"/>
<path d="M8.99874 21.0037H4.99707" stroke="#46525D" stroke-width="1.25" stroke-linecap="round" stroke-linejoin="round"/>
<path d="M21.0038 4.99708C21.0038 3.89205 20.108 2.99625 19.0029 2.99625" stroke="#46525D" stroke-width="1.25" stroke-linecap="round" stroke-linejoin="round"/>
<path d="M21.0037 7.99832V4.99707" stroke="#46525D" stroke-width="1.25" stroke-linecap="round" stroke-linejoin="round"/>
<path d="M4.99707 2.99624H19.0029" stroke="#46525D" stroke-width="1.25" stroke-linecap="round" stroke-linejoin="round"/>
<path d="M2.99622 4.99708C2.99622 3.89205 3.89202 2.99625 4.99705 2.99625" stroke="#46525D" stroke-width="1.25" stroke-linecap="round" stroke-linejoin="round"/>
<path fill-rule="evenodd" clip-rule="evenodd" d="M8.49855 17.0641V17.0641C7.66978 17.0641 6.99792 16.3923 6.99792 15.5635V15.5635C6.99792 14.7347 7.66978 14.0629 8.49855 14.0629V14.0629C9.32732 14.0629 9.99917 14.7347 9.99917 15.5635V15.5635C9.99917 16.3923 9.32732 17.0641 8.49855 17.0641V17.0641Z" stroke="#46525D" stroke-width="1.25" stroke-linecap="round" stroke-linejoin="round"/>
<path d="M6.99792 7.05993H15.0013" stroke="#46525D" stroke-width="1.25" stroke-linecap="round" stroke-linejoin="round"/>
<path d="M6.99792 10.5614H12" stroke="#46525D" stroke-width="1.25" stroke-linecap="round" stroke-linejoin="round"/>
<path fill-rule="evenodd" clip-rule="evenodd" d="M13.5006 20.5035V20.0974C13.5039 18.9418 14.4399 18.0058 15.5955 18.0025H18.9089C20.0645 18.0058 21.0004 18.9418 21.0037 20.0974V20.5035C21.0037 20.7798 20.7798 21.0038 20.5035 21.0038H14.0008C13.7246 21.0038 13.5006 20.7798 13.5006 20.5035Z" stroke="#46525D" stroke-width="1.25" stroke-linecap="round" stroke-linejoin="round"/>
<path fill-rule="evenodd" clip-rule="evenodd" d="M15.2514 13.4926C15.2558 12.3886 16.1535 11.4969 17.2575 11.4998C18.3615 11.5027 19.2545 12.3993 19.253 13.5033C19.2516 14.6073 18.3562 15.5015 17.2522 15.5015C16.7202 15.5015 16.21 15.2896 15.8346 14.9126C15.4591 14.5356 15.2492 14.0247 15.2514 13.4926V13.4926Z" stroke="#46525D" stroke-width="1.25" stroke-linecap="round" stroke-linejoin="round"/>
</svg>
