<svg width="24" height="24" viewBox="0 0 24 24" fill="none" xmlns="http://www.w3.org/2000/svg">
<path d="M12.75 4.75H17.25C17.7804 4.75 18.2891 4.96071 18.6642 5.33579C19.0393 5.71086 19.25 6.21957 19.25 6.75V17.25C19.25 17.7804 19.0393 18.2891 18.6642 18.6642C18.2891 19.0393 17.7804 19.25 17.25 19.25H12.75M4.75 17.25V6.75C4.75 6.21957 4.96071 5.71086 5.33579 5.33579C5.71086 4.96071 6.21957 4.75 6.75 4.75H9.25V19.25H6.75C6.21957 19.25 5.71086 19.0393 5.33579 18.6642C4.96071 18.2891 4.75 17.7804 4.75 17.25Z" stroke="#46525D" stroke-width="1.5" stroke-linecap="round" stroke-linejoin="round"/>
</svg>
