<svg width="200" height="46" viewBox="0 0 200 46" fill="none" xmlns="http://www.w3.org/2000/svg">
<path d="M52.4475 23.0782L47.88 2.73741H53.0625L55.55 15.2903L59.12 2.73741H63.8325L67.405 15.2903L69.8925 2.73741H74.8975L70.33 23.0782H65.0025L61.4025 10.1183L57.7725 23.0782H52.445H52.4475Z" fill="#2662D9"/>
<path d="M76.745 23.0782V2.73741L81.4875 1.71988V8.75327C82.6575 7.86231 84.045 7.41559 85.645 7.41559C86.855 7.41559 87.9225 7.67618 88.85 8.19984C89.7775 8.72349 90.505 9.44818 91.03 10.3788C91.5575 11.3095 91.82 12.3841 91.82 13.6052V23.0782H87.0775V14.243C87.0775 13.3917 86.8225 12.7117 86.3175 12.2079C85.81 11.7041 85.1275 11.4535 84.2675 11.4535C83.6625 11.4535 83.13 11.5602 82.6725 11.7736C82.215 11.987 81.8175 12.2873 81.4875 12.6745V23.0782H76.745Z" fill="#2662D9"/>
<path d="M102.035 23.3685C100.455 23.3685 99.03 23.0161 97.7625 22.3088C96.4925 21.6015 95.49 20.6485 94.7475 19.4473C94.005 18.2461 93.635 16.901 93.635 15.407C93.635 13.9129 94.005 12.5653 94.7475 11.3542C95.49 10.1431 96.495 9.18511 97.7625 8.4778C99.03 7.77049 100.455 7.41808 102.035 7.41808C103.615 7.41808 105.04 7.77297 106.31 8.4778C107.578 9.18511 108.583 10.1431 109.325 11.3542C110.065 12.5653 110.438 13.9154 110.438 15.407C110.438 16.8985 110.068 18.2461 109.325 19.4473C108.583 20.6485 107.578 21.6015 106.31 22.3088C105.04 23.0161 103.618 23.3685 102.035 23.3685ZM102.035 19.3009C102.758 19.3009 103.4 19.1272 103.968 18.7772C104.533 18.4273 104.983 17.9582 105.313 17.3676C105.645 16.7769 105.81 16.1242 105.81 15.407C105.81 14.6897 105.645 14.0072 105.313 13.4166C104.98 12.8259 104.528 12.3568 103.953 12.0069C103.378 11.6595 102.738 11.4832 102.035 11.4832C101.333 11.4832 100.693 11.657 100.118 12.0069C99.5425 12.3568 99.0875 12.8259 98.7575 13.4166C98.425 14.0072 98.26 14.6699 98.26 15.407C98.26 16.1441 98.425 16.7769 98.7575 17.3676C99.09 17.9582 99.5425 18.4273 100.118 18.7772C100.693 19.1247 101.333 19.3009 102.035 19.3009Z" fill="#2662D9"/>
<path d="M112.37 23.0782V2.73742L117.112 2.01025V23.0782H112.37Z" fill="#2662D9"/>
<path d="M127.473 23.3685C125.893 23.3685 124.463 23.0161 123.185 22.3088C121.908 21.6015 120.898 20.6485 120.155 19.4473C119.413 18.2461 119.043 16.901 119.043 15.407C119.043 13.9129 119.398 12.5703 120.11 11.3666C120.823 10.1654 121.793 9.21241 123.023 8.5051C124.253 7.79779 125.618 7.44537 127.12 7.44537C128.623 7.44537 129.988 7.80771 131.16 8.53488C132.333 9.26204 133.253 10.2548 133.925 11.513C134.598 12.7738 134.935 14.2157 134.935 15.8438V17.0052H123.9C124.115 17.4892 124.403 17.916 124.763 18.2834C125.123 18.6507 125.558 18.9361 126.065 19.1396C126.573 19.3431 127.12 19.4448 127.705 19.4448C128.35 19.4448 128.935 19.3431 129.463 19.1396C129.99 18.9361 130.438 18.6507 130.81 18.2834L133.943 21.0431C132.968 21.8571 131.968 22.4478 130.943 22.8151C129.918 23.1824 128.763 23.3661 127.473 23.3661V23.3685ZM123.815 13.7218H130.285C130.128 13.218 129.89 12.7862 129.568 12.4288C129.245 12.0714 128.87 11.7885 128.44 11.585C128.01 11.3815 127.543 11.2797 127.035 11.2797C126.528 11.2797 126.03 11.3765 125.6 11.5701C125.17 11.7637 124.805 12.0392 124.503 12.399C124.2 12.7589 123.97 13.1982 123.815 13.7218Z" fill="#2662D9"/>
<path d="M143.572 23.3685C142.11 23.3685 140.753 23.1998 139.503 22.8598C138.253 22.5198 137.17 22.0209 136.253 21.3633L138.508 18.1965C139.483 18.7772 140.37 19.1991 141.173 19.4597C141.973 19.7203 142.762 19.8518 143.542 19.8518C144.322 19.8518 144.942 19.7402 145.402 19.5168C145.86 19.2934 146.09 18.9981 146.09 18.6308C146.09 18.3404 145.963 18.1022 145.71 17.9185C145.455 17.7349 145.055 17.6033 144.51 17.5264L141.438 17.0623C139.895 16.829 138.72 16.3203 137.91 15.536C137.1 14.7518 136.695 13.7293 136.695 12.471C136.695 11.4237 136.962 10.5302 137.5 9.78322C138.038 9.03868 138.803 8.46539 139.798 8.0683C140.793 7.67121 141.982 7.47267 143.37 7.47267C144.502 7.47267 145.625 7.62902 146.735 7.93677C147.848 8.24699 148.882 8.71108 149.837 9.33153L147.583 12.3544C146.743 11.8704 145.942 11.5155 145.182 11.2946C144.422 11.0713 143.66 10.9596 142.9 10.9596C142.295 10.9596 141.807 11.0613 141.438 11.2648C141.068 11.4684 140.883 11.7339 140.883 12.064C140.883 12.3742 141.02 12.6199 141.292 12.806C141.565 12.9897 142.035 13.1312 142.697 13.2279L145.77 13.692C147.293 13.9055 148.468 14.4043 149.298 15.1886C150.128 15.9728 150.542 16.9655 150.542 18.1667C150.542 19.1743 150.24 20.0653 149.635 20.8396C149.03 21.6139 148.205 22.2294 147.163 22.6861C146.118 23.1402 144.922 23.3685 143.577 23.3685H143.572Z" fill="#2662D9"/>
<path d="M157.595 23.3412C156.503 23.3412 155.532 23.1377 154.682 22.7307C153.832 22.3237 153.17 21.7628 152.693 21.0456C152.215 20.3283 151.975 19.5044 151.975 18.5762C151.975 17.1045 152.535 15.9654 153.658 15.1613C154.78 14.3572 156.345 13.9551 158.355 13.9551C159.565 13.9551 160.735 14.1015 161.867 14.3919V13.6374C161.867 12.8631 161.617 12.2873 161.12 11.9076C160.622 11.5279 159.885 11.3418 158.91 11.3418C158.305 11.3418 157.628 11.4386 156.875 11.6321C156.122 11.8257 155.24 12.136 154.225 12.5628L152.527 9.10568C153.795 8.5448 155.02 8.12289 156.202 7.84245C157.382 7.56201 158.567 7.42055 159.76 7.42055C161.907 7.42055 163.575 7.92931 164.765 8.94685C165.955 9.96438 166.55 11.3939 166.55 13.2329V23.0831H161.867V22.1525C161.242 22.5793 160.585 22.8846 159.893 23.0682C159.2 23.2519 158.433 23.3437 157.595 23.3437V23.3412ZM156.482 18.4869C156.482 18.9708 156.698 19.348 157.128 19.621C157.558 19.8915 158.153 20.028 158.913 20.028C159.478 20.028 160.01 19.971 160.508 19.8543C161.005 19.7377 161.46 19.554 161.867 19.3034V17.3279C161.417 17.2112 160.96 17.1243 160.492 17.0673C160.025 17.0102 159.545 16.9804 159.057 16.9804C158.237 16.9804 157.602 17.1119 157.155 17.3725C156.705 17.6331 156.482 18.0079 156.482 18.4918V18.4869Z" fill="#2662D9"/>
<path d="M169.07 23.0782V2.73742L173.812 2.01025V23.0782H169.07Z" fill="#2662D9"/>
<path d="M184.175 23.3685C182.595 23.3685 181.165 23.0161 179.887 22.3088C178.61 21.6015 177.6 20.6485 176.857 19.4473C176.115 18.2461 175.745 16.901 175.745 15.407C175.745 13.9129 176.1 12.5703 176.812 11.3666C177.525 10.1654 178.495 9.21241 179.725 8.5051C180.955 7.79779 182.32 7.44537 183.822 7.44537C185.325 7.44537 186.69 7.80771 187.863 8.53488C189.035 9.26204 189.955 10.2548 190.628 11.513C191.3 12.7738 191.637 14.2157 191.637 15.8438V17.0052H180.602C180.817 17.4892 181.105 17.916 181.465 18.2834C181.825 18.6507 182.26 18.9361 182.768 19.1396C183.275 19.3431 183.823 19.4448 184.408 19.4448C185.053 19.4448 185.637 19.3431 186.165 19.1396C186.692 18.9361 187.14 18.6507 187.512 18.2834L190.645 21.0431C189.67 21.8571 188.67 22.4478 187.645 22.8151C186.62 23.1824 185.465 23.3661 184.175 23.3661V23.3685ZM180.515 13.7218H186.985C186.828 13.218 186.59 12.7862 186.268 12.4288C185.945 12.0714 185.57 11.7885 185.14 11.585C184.71 11.3815 184.243 11.2797 183.735 11.2797C183.228 11.2797 182.73 11.3765 182.3 11.5701C181.87 11.7637 181.505 12.0392 181.202 12.399C180.9 12.7589 180.67 13.1982 180.515 13.7218Z" fill="#2662D9"/>
<path d="M192.405 27.3071H47.52V43.4487H192.405V27.3071Z" fill="black"/>
<path d="M54.6475 39.6367L58.1725 31.0993H60.5925L64.07 39.6367H61.785L60.9975 37.5768H57.6425L56.845 39.6367H54.645H54.6475ZM58.2825 35.9065H60.37L59.3375 33.1741L58.28 35.9065H58.2825Z" fill="white"/>
<path d="M80.2375 39.7583C79.4425 39.7583 78.7525 39.6019 78.1675 39.2892C77.5825 38.9765 77.13 38.5323 76.81 37.954C76.49 37.3758 76.33 36.6982 76.33 35.9165V31.0993H78.4425V35.9165C78.4425 36.2987 78.515 36.6337 78.6625 36.9216C78.81 37.2095 79.02 37.4329 79.295 37.5867C79.57 37.7406 79.8875 37.8175 80.2475 37.8175C80.6075 37.8175 80.9325 37.7406 81.2 37.5867C81.465 37.4329 81.6725 37.212 81.82 36.9216C81.9675 36.6337 82.04 36.2987 82.04 35.9165V31.0993H84.1525V35.9165C84.1525 36.6883 83.99 37.3634 83.6675 37.9416C83.345 38.5199 82.89 38.9666 82.305 39.2843C81.72 39.6019 81.03 39.7608 80.235 39.7608L80.2375 39.7583Z" fill="white"/>
<path d="M101.887 39.7583C101.232 39.7583 100.625 39.6466 100.062 39.4232C99.5025 39.1999 99.0125 38.8897 98.595 38.4901C98.1775 38.093 97.8525 37.6264 97.6175 37.0928C97.385 36.5593 97.2675 35.986 97.2675 35.368C97.2675 34.75 97.385 34.1618 97.6175 33.6307C97.85 33.0972 98.1775 32.6331 98.6 32.2335C99.0225 31.8364 99.5125 31.5237 100.075 31.3003C100.635 31.077 101.24 30.9653 101.887 30.9653C102.362 30.9653 102.83 31.0348 103.287 31.1738C103.745 31.3128 104.17 31.5039 104.56 31.752C104.95 32.0002 105.275 32.2955 105.537 32.6355L104.113 34.0254C103.81 33.6432 103.472 33.3577 103.1 33.1716C102.727 32.9855 102.325 32.8912 101.89 32.8912C101.545 32.8912 101.225 32.9532 100.925 33.0798C100.625 33.2064 100.365 33.3776 100.145 33.5985C99.925 33.8194 99.7525 34.0775 99.63 34.3802C99.5075 34.683 99.445 35.0106 99.445 35.368C99.445 35.7254 99.5075 36.0406 99.635 36.3384C99.7625 36.6362 99.9375 36.8968 100.162 37.1201C100.387 37.3435 100.655 37.5172 100.96 37.6388C101.267 37.7604 101.6 37.8225 101.96 37.8225C102.377 37.8225 102.765 37.7331 103.12 37.5545C103.478 37.3758 103.797 37.1102 104.085 36.7628L105.473 38.1178C105.21 38.4504 104.888 38.7408 104.503 38.9889C104.118 39.2371 103.7 39.4282 103.25 39.5622C102.8 39.6962 102.345 39.7633 101.885 39.7633L101.887 39.7583Z" fill="white"/>
<path d="M120.975 39.6367V32.9532H118.163V31.0993H125.903V32.9532H123.09V39.6367H120.978H120.975Z" fill="white"/>
<path d="M138.802 39.6367V31.0993H140.915V39.6367H138.802Z" fill="white"/>
<path d="M158.78 39.7707C158.132 39.7707 157.53 39.659 156.975 39.4356C156.418 39.2123 155.93 38.8996 155.512 38.4975C155.095 38.0955 154.77 37.6289 154.535 37.0953C154.303 36.5617 154.185 35.9884 154.185 35.3705C154.185 34.7525 154.303 34.1767 154.535 33.6456C154.768 33.1145 155.095 32.6455 155.512 32.2434C155.93 31.8414 156.418 31.5287 156.975 31.3053C157.533 31.0819 158.135 30.9703 158.78 30.9703C159.425 30.9703 160.03 31.0819 160.585 31.3053C161.143 31.5287 161.63 31.8414 162.048 32.2434C162.465 32.6455 162.79 33.1145 163.025 33.6456C163.257 34.1792 163.375 34.7525 163.375 35.3705C163.375 35.9884 163.257 36.5642 163.025 37.0953C162.792 37.6289 162.465 38.0955 162.048 38.4975C161.63 38.8996 161.143 39.2123 160.585 39.4356C160.028 39.659 159.425 39.7707 158.78 39.7707ZM158.78 37.8448C159.125 37.8448 159.443 37.7828 159.738 37.6562C160.033 37.5296 160.288 37.3584 160.505 37.1375C160.723 36.9191 160.892 36.656 161.015 36.3508C161.137 36.0455 161.2 35.7179 161.2 35.368C161.2 35.0181 161.137 34.6805 161.015 34.3802C160.892 34.0799 160.723 33.8194 160.505 33.5985C160.288 33.3801 160.033 33.2064 159.738 33.0798C159.443 32.9532 159.122 32.8912 158.78 32.8912C158.437 32.8912 158.117 32.9532 157.822 33.0798C157.527 33.2064 157.272 33.3776 157.055 33.5985C156.837 33.8169 156.667 34.0775 156.545 34.3802C156.422 34.683 156.36 35.0106 156.36 35.368C156.36 35.7254 156.422 36.0455 156.545 36.3508C156.667 36.656 156.837 36.9191 157.055 37.1375C157.272 37.3559 157.527 37.5296 157.822 37.6562C158.117 37.7828 158.437 37.8448 158.78 37.8448Z" fill="white"/>
<path d="M176.625 39.6367V31.0993H178.615L182.523 36.0505V31.0993H184.512V39.6367H182.645L178.615 34.4894V39.6367H176.625Z" fill="white"/>
<path d="M32.5675 25.488C32.5675 34.3778 22 39.4084 19.145 40.5947C16.3875 39.4555 6.57 34.7873 5.76 26.5725L5.7 25.0165V12.2526C10.1675 11.6346 14.68 10.0587 19.145 7.54466C21.585 8.91709 24.025 10.014 26.49 10.8132L26.83 10.8976L29.56 7.35356L29.2075 7.22451C26.215 6.40055 23.2225 5.07527 20.2275 3.29335L19.145 2.65305L18.04 3.29335C13.16 6.21938 8.2325 7.88714 3.3975 8.27678L1.44 8.43562V25.4855C1.44 38.7184 17.74 44.6152 18.4325 44.8435L19.145 45.0942L19.835 44.8435C20.525 44.6152 36.8275 38.7184 36.8275 25.4855V18.5315L32.5675 24.0734V25.4855V25.488Z" fill="#2662D9"/>
<path d="M37.295 1.86631L19.075 25.5128L13.6425 20.5393L8.88 25.6692L20.01 35.8544L42.9075 6.06054L37.295 1.86383V1.86631Z" fill="black"/>
</svg>
