<svg width="18" height="18" viewBox="0 0 18 18" fill="none" xmlns="http://www.w3.org/2000/svg">
<path d="M13.1956 9.83414C13.1956 13.534 8.71166 15.628 7.50624 16.1217C6.33575 15.645 2.17209 13.7043 1.82852 10.2824L1.80522 9.63552V4.32403C3.6978 4.06867 5.61366 3.4104 7.50624 2.36626C8.54278 2.9394 9.57351 3.39338 10.6217 3.72818L10.7673 3.76223L11.9261 2.28682L11.7747 2.23574C10.5052 1.89526 9.23576 1.33915 7.96628 0.601438L7.50624 0.334728L7.04037 0.601438C4.9731 1.82149 2.88253 2.5138 0.832732 2.6727L0 2.74079V9.83981C0 15.3499 6.91226 17.8014 7.20342 17.8979L7.50624 18L7.7974 17.8979C8.08857 17.8014 15.0008 15.3499 15.0008 9.83981V6.94573L13.1956 9.25532V9.84549V9.83414Z" fill="#2662D9"/>
<path d="M15.1989 0L7.47135 9.84557L5.16533 7.77431L3.14464 9.90799L7.86734 14.147L17.5806 1.7478L15.1989 0Z" fill="#242426"/>
</svg>
