<svg width="96" height="14" viewBox="0 0 96 14" fill="none" xmlns="http://www.w3.org/2000/svg">
<g clip-path="url(#clip0_10_194)">
<path d="M10.1905 7.65164C10.1905 10.3238 6.95206 11.8361 6.08148 12.1926C5.23613 11.8484 2.22903 10.4467 1.98089 7.97541L1.96407 7.5082V3.67213C3.33093 3.48771 4.71462 3.0123 6.08148 2.2582C6.8301 2.67213 7.57451 3 8.33154 3.2418L8.43669 3.26639L9.27363 2.20082L9.16428 2.16394C8.24743 1.91803 7.33058 1.51639 6.41373 0.983608L6.08148 0.790985L5.74502 0.983608C4.25199 1.86476 2.74213 2.36476 1.26171 2.47951L0.660294 2.52869V7.65574C0.660294 11.6352 5.65249 13.4057 5.86278 13.4754L6.08148 13.5492L6.29176 13.4754C6.50205 13.4057 11.4943 11.6352 11.4943 7.65574V5.56557L10.1905 7.23361V7.65984V7.65164Z" fill="#2662D9"/>
<path d="M11.6372 0.549179L6.05624 7.65983L4.39077 6.16393L2.93138 7.70492L6.34223 10.7664L13.3574 1.81147L11.6372 0.549179Z" fill="black"/>
<path d="M16.9533 12.5943L14.3836 1.35246H17.3024L18.7029 8.29099L20.7132 1.35246H23.367L25.3774 8.29099L26.7779 1.35246H29.5957L27.026 12.5943H24.0273L22.0002 5.43033L19.9562 12.5943H16.9575H16.9533Z" fill="#2662D9"/>
<path d="M30.6303 12.5943V1.35246L33.301 0.790985V4.67623C33.9613 4.18443 34.7393 3.93853 35.6393 3.93853C36.3207 3.93853 36.9221 4.08197 37.4436 4.37295C37.9651 4.66394 38.3731 5.06148 38.6717 5.57787C38.9703 6.09017 39.1175 6.68443 39.1175 7.36066V12.5984H36.4469V7.71722C36.4469 7.24591 36.3039 6.87295 36.0179 6.59427C35.7319 6.31558 35.3492 6.17623 34.8655 6.17623C34.5248 6.17623 34.2262 6.23361 33.9655 6.35246C33.7089 6.47132 33.486 6.63525 33.2968 6.84836V12.5984H30.6261L30.6303 12.5943Z" fill="#2662D9"/>
<path d="M44.8709 12.7541C43.9793 12.7541 43.1802 12.5574 42.4652 12.168C41.7503 11.7787 41.1867 11.25 40.7661 10.5861C40.3498 9.92213 40.1395 9.17623 40.1395 8.35246C40.1395 7.52869 40.3498 6.78279 40.7661 6.11065C41.1825 5.44262 41.7503 4.90984 42.4652 4.52049C43.1802 4.13115 43.9835 3.93443 44.8709 3.93443C45.7583 3.93443 46.5616 4.13115 47.2766 4.52049C47.9916 4.90984 48.5551 5.44262 48.9757 6.11065C49.3921 6.77869 49.6024 7.52869 49.6024 8.35246C49.6024 9.17623 49.3921 9.92213 48.9757 10.5861C48.5593 11.25 47.9916 11.7787 47.2766 12.168C46.5616 12.5574 45.7583 12.7541 44.8709 12.7541ZM44.8709 10.5041C45.2789 10.5041 45.6406 10.4057 45.9602 10.2131C46.2798 10.0205 46.5322 9.76229 46.7172 9.43443C46.9023 9.10656 46.999 8.7459 46.999 8.34836C46.999 7.95082 46.9065 7.57377 46.7172 7.25C46.5322 6.92213 46.2756 6.66393 45.9518 6.47131C45.6279 6.27869 45.2663 6.18033 44.8709 6.18033C44.4756 6.18033 44.1139 6.27869 43.79 6.47131C43.4662 6.66393 43.2096 6.92213 43.0246 7.25C42.8395 7.57787 42.7428 7.94262 42.7428 8.34836C42.7428 8.7541 42.8353 9.10656 43.0246 9.43443C43.2096 9.76229 43.4662 10.0205 43.79 10.2131C44.1139 10.4057 44.4756 10.5041 44.8709 10.5041Z" fill="#2662D9"/>
<path d="M50.6917 12.5943V1.35246L53.3623 0.950821V12.5943H50.6917Z" fill="#2662D9"/>
<path d="M59.1957 12.7541C58.3041 12.7541 57.5008 12.5574 56.7816 12.168C56.0624 11.7787 55.4947 11.25 55.0741 10.5861C54.6577 9.92213 54.4474 9.17623 54.4474 8.35246C54.4474 7.52869 54.6493 6.78279 55.0488 6.11885C55.4484 5.45492 55.9951 4.92623 56.6891 4.53689C57.383 4.14754 58.1485 3.95082 58.998 3.95082C59.8476 3.95082 60.613 4.15164 61.2733 4.55328C61.9336 4.95492 62.4509 5.5041 62.8294 6.20082C63.208 6.89754 63.3972 7.69262 63.3972 8.59426V9.23771H57.1854C57.3073 9.5041 57.4671 9.74181 57.6732 9.94263C57.8751 10.1475 58.119 10.3033 58.405 10.418C58.691 10.5287 58.998 10.5861 59.3261 10.5861C59.6878 10.5861 60.02 10.5287 60.3144 10.418C60.613 10.3074 60.8654 10.1475 61.0715 9.94263L62.8336 11.4672C62.2827 11.918 61.7191 12.2418 61.143 12.4467C60.5668 12.6516 59.9149 12.75 59.1915 12.75L59.1957 12.7541ZM57.1349 7.42213H60.777C60.6887 7.14344 60.5541 6.90574 60.3733 6.70902C60.1925 6.5123 59.9822 6.35656 59.7382 6.2418C59.4985 6.13115 59.2336 6.07377 58.9476 6.07377C58.6616 6.07377 58.3798 6.12705 58.1401 6.23361C57.9003 6.34017 57.6943 6.4918 57.5218 6.69262C57.3494 6.88935 57.2232 7.13525 57.1349 7.42213Z" fill="#2662D9"/>
<path d="M68.2591 12.7541C67.4347 12.7541 66.6693 12.6598 65.9669 12.4713C65.2646 12.2828 64.6547 12.0082 64.1374 11.6434L65.4076 9.89345C65.9585 10.2131 66.4548 10.4467 66.909 10.5902C67.359 10.7336 67.8048 10.8074 68.2422 10.8074C68.6796 10.8074 69.0287 10.7459 69.2895 10.623C69.546 10.5 69.6764 10.3361 69.6764 10.1312C69.6764 9.97132 69.6049 9.84017 69.4619 9.73771C69.3189 9.63525 69.0918 9.56558 68.7848 9.5205L67.0562 9.2623C66.1898 9.13525 65.5253 8.85246 65.0711 8.41804C64.6169 7.98361 64.3856 7.41804 64.3856 6.72541C64.3856 6.14754 64.537 5.65164 64.8398 5.24181C65.1426 4.82787 65.5716 4.5123 66.1352 4.29509C66.6945 4.07377 67.3674 3.96722 68.1455 3.96722C68.7806 3.96722 69.4156 4.05328 70.0423 4.22541C70.6689 4.39754 71.2493 4.65574 71.7877 4.9959L70.5175 6.66804C70.0465 6.40164 69.5965 6.20492 69.1675 6.08197C68.7385 5.95902 68.3095 5.89754 67.8805 5.89754C67.5399 5.89754 67.2665 5.95492 67.0562 6.06558C66.8459 6.17623 66.745 6.32377 66.745 6.5082C66.745 6.68033 66.8207 6.81558 66.9763 6.91804C67.1319 7.0205 67.3927 7.09836 67.767 7.15164L69.4955 7.40984C70.3535 7.52869 71.0138 7.80328 71.4806 8.23771C71.9475 8.67214 72.183 9.22132 72.183 9.88525C72.183 10.4426 72.0106 10.9344 71.6741 11.3648C71.3334 11.7951 70.8708 12.1312 70.282 12.3853C69.6932 12.6353 69.0203 12.7623 68.2633 12.7623L68.2591 12.7541Z" fill="#2662D9"/>
<path d="M76.1531 12.7377C75.5391 12.7377 74.9924 12.6271 74.5129 12.4016C74.0335 12.1762 73.6633 11.8648 73.3942 11.4713C73.125 11.0738 72.9904 10.6189 72.9904 10.1066C72.9904 9.29099 73.3059 8.66394 73.9367 8.22132C74.5676 7.77869 75.4508 7.55328 76.5821 7.55328C77.2635 7.55328 77.9238 7.63525 78.5588 7.79509V7.37705C78.5588 6.95082 78.42 6.63115 78.1382 6.42214C77.8565 6.21312 77.4443 6.11066 76.8934 6.11066C76.5527 6.11066 76.17 6.16394 75.7494 6.2705C75.3246 6.37705 74.8283 6.54918 74.2564 6.78279L73.3017 4.87296C74.0166 4.56148 74.7064 4.32787 75.3709 4.17623C76.0354 4.0205 76.7041 3.94263 77.3728 3.94263C78.5799 3.94263 79.5219 4.22541 80.1907 4.78689C80.8594 5.34836 81.1958 6.13935 81.1958 7.15574V12.5984H78.5588V12.0861C78.2055 12.3238 77.8354 12.4918 77.4443 12.5902C77.0532 12.6926 76.6242 12.7418 76.1489 12.7418L76.1531 12.7377ZM75.5265 10.0574C75.5265 10.3238 75.6485 10.5328 75.8882 10.6844C76.1279 10.8361 76.4644 10.9098 76.8934 10.9098C77.213 10.9098 77.5116 10.8771 77.7934 10.8115C78.0752 10.7459 78.3275 10.6475 78.5588 10.5082V9.41804C78.3065 9.35246 78.0499 9.30738 77.785 9.27459C77.52 9.24181 77.2508 9.22541 76.9775 9.22541C76.5148 9.22541 76.1573 9.29918 75.905 9.44263C75.6527 9.58607 75.5265 9.79509 75.5265 10.0615V10.0574Z" fill="#2662D9"/>
<path d="M82.6132 12.5943V1.35246L85.2838 0.950821V12.5943H82.6132Z" fill="#2662D9"/>
<path d="M91.1171 12.7541C90.2255 12.7541 89.4222 12.5574 88.703 12.168C87.9839 11.7787 87.4161 11.25 86.9955 10.5861C86.5792 9.92213 86.3689 9.17623 86.3689 8.35246C86.3689 7.52869 86.5707 6.78279 86.9703 6.11885C87.3698 5.45492 87.9166 4.92623 88.6105 4.53689C89.3045 4.14754 90.0699 3.95082 90.9195 3.95082C91.769 3.95082 92.5345 4.15164 93.1948 4.55328C93.8551 4.95492 94.3724 5.5041 94.7509 6.20082C95.1294 6.89754 95.3187 7.69262 95.3187 8.59426V9.23771H89.1068C89.2288 9.5041 89.3886 9.74181 89.5947 9.94263C89.7965 10.1475 90.0405 10.3033 90.3265 10.418C90.6124 10.5287 90.9195 10.5861 91.2475 10.5861C91.6092 10.5861 91.9415 10.5287 92.2359 10.418C92.5345 10.3074 92.7868 10.1475 92.9929 9.94263L94.7551 11.4672C94.2041 11.918 93.6406 12.2418 93.0644 12.4467C92.4882 12.6516 91.8363 12.75 91.1129 12.75L91.1171 12.7541ZM89.0563 7.42213H92.6985C92.6102 7.14344 92.4756 6.90574 92.2947 6.70902C92.1139 6.5123 91.9036 6.35656 91.6597 6.2418C91.4199 6.13115 91.155 6.07377 90.869 6.07377C90.583 6.07377 90.3012 6.12705 90.0615 6.23361C89.8218 6.34017 89.6157 6.4918 89.4433 6.69262C89.2708 6.88935 89.1446 7.13525 89.0563 7.42213Z" fill="#2662D9"/>
</g>
<defs>
<clipPath id="clip0_10_194">
<rect width="96" height="14" fill="white"/>
</clipPath>
</defs>
</svg>
